<?xml version="1.0" encoding="utf-8"?>
<!-- Generator: Adobe Illustrator 24.0.2, SVG Export Plug-In . SVG Version: 6.00 Build 0)  -->
<svg version="1.1" id="Layer_1" xmlns="http://www.w3.org/2000/svg" xmlns:xlink="http://www.w3.org/1999/xlink" x="0px" y="0px"
	 viewBox="0 0 20.96 21.15" style="enable-background:new 0 0 20.96 21.15;" xml:space="preserve">
<style type="text/css">
	.st0{fill:#4BB3AD;}
</style>
<path id="Icon_metro-cross" class="st0" d="M20.95,16.99L20.95,16.99l-6.42-6.42l6.42-6.42l0,0c0.26-0.26,0.26-0.68,0-0.93
	l-3.03-3.03c-0.26-0.26-0.68-0.26-0.93,0l0,0l-6.41,6.42L4.16,0.19l0,0c-0.26-0.26-0.68-0.26-0.93,0L0.19,3.22
	c-0.26,0.26-0.26,0.68,0,0.93l0,0l6.42,6.42l-6.42,6.42l0,0c-0.26,0.26-0.26,0.68,0,0.93l3.03,3.03c0.26,0.26,0.68,0.26,0.93,0l0,0
	l6.42-6.42l6.42,6.42l0,0c0.26,0.26,0.68,0.26,0.93,0l3.03-3.03C21.21,17.66,21.21,17.25,20.95,16.99L20.95,16.99z"/>
</svg>
